<svg xmlns="http://www.w3.org/2000/svg" viewBox="0 0 76.63 130.29"><defs><style>.cls-1{font-size:25.78px;font-family:Montserrat-Light, Montserrat Light;font-weight:300;}.cls-2,.cls-4{fill:#004225;}.cls-2{font-family:Montserrat-Bold, Montserrat Bold;font-weight:700;letter-spacing:0.2em;}.cls-3,.cls-6{fill:none;stroke-linecap:round;stroke-linejoin:round;stroke-width:3px;}.cls-3{stroke:#000;}.cls-5{fill:#3aaa35;}.cls-6{stroke:#3aaa35;}</style></defs><g id="Layer_2" data-name="Layer 2"><g id="OBJECTS"><text class="cls-1" transform="translate(0 123.84)">shop <tspan class="cls-2" x="58.81" y="0">E</tspan></text><circle class="cls-3" cx="21.09" cy="86.88" r="6.5"/><path class="cls-4" d="M13.49,0s-.32,27.46,23.85,24.11C40.7-.11,13.49,0,13.49,0Z"/><path class="cls-5" d="M13.7,3.9h0c.76,6.86,4.59,22.77,23.68,20.12Z"/><path class="cls-5" d="M37.34,23.88,17.19.2h0C24,1,40,4.76,37.34,23.88"/><line class="cls-6" x1="5.84" y1="61.88" x2="49.84" y2="61.88"/><path class="cls-3" d="M65.59,63.88a12,12,0,0,1-12,12H18.09a12,12,0,0,1-12-12v-21a12,12,0,0,1,12-12h35.5"/><path class="cls-3" d="M54,10.21a5.15,5.15,0,0,1,5.13,5.14V25.74A5.15,5.15,0,0,1,54,30.88H43.56"/><path class="cls-3" d="M61.35,83.05a6.5,6.5,0,1,1-9.08-1.43A6.5,6.5,0,0,1,61.35,83.05Z"/><line class="cls-4" x1="29.57" y1="16.11" x2="40.9" y2="27.45"/></g></g></svg>